<svg width="1120" height="702" viewBox="0 0 1120 702" fill="none" xmlns="http://www.w3.org/2000/svg">
<path d="M0 0H1120V702H0V0Z" fill="#FFE0E2"/>
<path fill-rule="evenodd" clip-rule="evenodd" d="M686.796 24.8493L682.688 22L673 35.9696L677.109 38.8189L686.796 24.8493ZM155.121 39L160.082 39.6239L157.961 56.4911L153 55.8671L155.121 39ZM73.7224 61L76.2224 65.3301L61.5 73.8301L59 69.5L73.7224 61ZM275.688 156L279.796 158.849L270.109 172.819L266 169.97L275.688 156ZM222.082 101.624L217.121 101L215 117.867L219.961 118.491L222.082 101.624ZM47.5627 116L44 119.508L55.9279 131.621L59.4905 128.113L47.5627 116ZM847.722 168L850.222 172.33L835.5 180.83L833 176.5L847.722 168ZM1057.22 59.3301L1054.72 55L1040 63.5L1042.5 67.8301L1057.22 59.3301ZM999.121 220L1004.08 220.624L1001.96 237.491L997 236.867L999.121 220ZM1051.08 432.624L1046.12 432L1044 448.867L1048.96 449.491L1051.08 432.624ZM865 299.508L868.563 296L880.491 308.113L876.928 311.621L865 299.508ZM719.563 312L716 315.508L727.928 327.621L731.491 324.113L719.563 312ZM219.397 229.537L217 225.149L231.92 217L234.316 221.388L219.397 229.537ZM137.384 238.228L142.329 238.969L144.849 222.157L139.905 221.416L137.384 238.228ZM48.9448 203.553L44 202.812L46.5202 186L51.465 186.741L48.9448 203.553ZM507 395.812L511.945 396.553L514.465 379.741L509.52 379L507 395.812ZM568.308 563.004L565.736 567.292L551.157 558.549L553.729 554.261L568.308 563.004ZM318.638 222.815L322.282 219.392L310.645 207L307 210.423L318.638 222.815ZM422.303 51L426.412 53.8493L416.724 67.8189L412.616 64.9696L422.303 51ZM407.397 222.537L405 218.149L419.92 210L422.316 214.388L407.397 222.537ZM273 61.149L275.397 65.5371L290.316 57.3881L287.92 53L273 61.149ZM332.945 119.969L328 119.228L330.52 102.416L335.465 103.157L332.945 119.969ZM503.638 74.8149L507.282 71.3921L495.645 59L492 62.4228L503.638 74.8149ZM146.093 440.542L141 439.823L143.516 423L148.609 423.719L146.093 440.542ZM73.2285 366.308L69.007 363.449L59 377.394L63.2215 380.254L73.2285 366.308ZM184 286.541L188.896 285L194.287 301.173L189.391 302.713L184 286.541ZM560.896 303L556 304.541L561.391 320.713L566.287 319.173L560.896 303ZM917.397 73.5371L915 69.149L929.92 61L932.316 65.3881L917.397 73.5371ZM974.15 143.299L979.139 142.961L977.989 126L973 126.338L974.15 143.299ZM826.329 71.9692L821.384 71.228L823.905 54.4158L828.849 55.1571L826.329 71.9692ZM741.938 173.101L744.374 168.734L729.527 160.453L727.091 164.819L741.938 173.101ZM1005.94 545.553L1001 544.812L1003.52 528L1008.46 528.741L1005.94 545.553ZM903.896 210L899 211.541L904.391 227.713L909.287 226.173L903.896 210ZM794 357.541L798.896 356L804.287 372.173L799.391 373.713L794 357.541ZM298.788 486L297 490.688L313.408 496.594L315.195 491.905L298.788 486ZM298.225 319.696L301.916 316.296L313.97 328.897L310.28 332.297L298.225 319.696ZM326.1 332.632L324.444 327.895L308.095 333.962L309.752 338.698L326.1 332.632Z" fill="#FFEFF0"/>
<path fill-rule="evenodd" clip-rule="evenodd" d="M761.615 79.9607C762.747 74.8935 768.332 72.2305 772.982 74.5403L793.44 84.7025C796.817 86.3801 798.565 90.1885 797.633 93.8428L792.669 113.323C791.537 117.765 786.912 120.349 782.536 118.985L761.859 112.539C757.885 111.3 755.525 107.22 756.432 103.157L761.615 79.9607ZM88.8266 145.02C86.8811 149.84 89.9757 155.206 95.1215 155.935L148.028 163.44C152.223 164.035 156.155 161.256 156.993 157.102L164.865 118.102C165.759 113.671 162.807 109.379 158.349 108.63L113.338 101.065C109.636 100.443 105.999 102.478 104.594 105.96L88.8266 145.02ZM977.994 274.968C976.163 279.828 979.376 285.118 984.533 285.733L1048.97 293.419C1053.09 293.91 1056.89 291.179 1057.75 287.124L1070.49 226.644C1071.44 222.142 1068.4 217.77 1063.85 217.084L1009.65 208.916C1005.91 208.354 1002.3 210.475 1000.97 214.005L977.994 274.968ZM355.628 402.366C354.679 407.47 349.193 410.332 344.464 408.19L279.073 378.583C275.637 377.028 273.755 373.285 274.554 369.599L288.007 307.592C288.979 303.112 293.509 300.363 297.931 301.57L363.582 319.48C367.598 320.576 370.103 324.568 369.341 328.661L355.628 402.366ZM114.682 675.255C116.778 680.12 122.937 681.641 127.057 678.312L163.845 648.589C166.864 646.15 167.697 641.896 165.821 638.499L128.006 570.017C125.675 565.795 120.167 564.58 116.276 567.43L84.8944 590.414C81.8855 592.617 80.7986 596.608 82.2743 600.033L114.682 675.255ZM824.603 499.139C820.347 502.119 814.425 500.315 812.552 495.47L805.175 476.377C803.814 472.857 805.099 468.865 808.257 466.799L821.669 458.025C825.527 455.501 830.715 456.752 832.998 460.757L842.633 477.653C844.679 481.242 843.656 485.799 840.271 488.169L824.603 499.139ZM1044.03 672.347C1049.33 672.521 1053.32 667.598 1052.07 662.455L1040.62 615.575C1039.58 611.282 1035.25 608.652 1030.96 609.7L1012.06 614.313C1007.82 615.348 1005.19 619.59 1006.16 623.847L1015.55 665.427C1016.35 668.979 1019.45 671.541 1023.09 671.661L1044.03 672.347ZM98.5604 251.804C98.4532 246.613 93.5062 242.898 88.4911 244.242L65.5328 250.395C61.5117 251.473 58.9891 255.454 59.7323 259.551L63.5987 280.861C64.417 285.371 68.85 288.273 73.3108 287.218L92.8744 282.593C96.5443 281.725 99.1099 278.413 99.032 274.643L98.5604 251.804Z" fill="#FFE6E7"/>
<g clip-path="url(#clip0_1_180)">
<path d="M58.9092 268.449L71.6945 316.793L101.843 307.928L89.0573 259.584L58.9092 268.449Z" fill="#362E2D"/>
<path d="M56.2 271.759L58.8 268.701L87.5 263.535L100.3 307.083L89.5 332.706L69.3 318.787L56.2 271.759Z" fill="white"/>
<path d="M77.8 290.423L90.6 334.709L68.9 320.052L56.2 271.759L77.8 290.423Z" fill="#4E3734"/>
<path d="M58.8 269.545L85.6 268.49L98.6 311.09L100.3 307.083L87.5 263.535L59.6 268.49L58.8 269.545Z" fill="#F7F7F7"/>
<path d="M178.9 340.087C195.745 340.087 209.4 325.688 209.4 307.926C209.4 290.165 195.745 275.766 178.9 275.766C162.055 275.766 148.4 290.165 148.4 307.926C148.4 325.688 162.055 340.087 178.9 340.087Z" fill="#8C503E"/>
<path d="M318.2 612.342C318.2 612.342 322 622.36 323.7 627.843C325.4 633.326 328.4 640.18 330.9 640.39C333.4 640.601 333.9 630.373 332.3 614.768C330.7 599.267 331.9 597.053 323.8 597.159C320.2 597.159 318.2 596.842 318.2 596.842V612.342Z" fill="#FF6ED9"/>
<path d="M94.2 666.54C94.2 666.54 83.3 668.333 77.6 670.758C71.9 673.183 67.5 675.609 67.5 678.561C67.5 680.881 77.9 680.143 94.1 680.143C110.7 680.248 115.4 680.67 112.5 671.813C111.5 668.755 108.9 666.224 108.9 666.224L94.2 666.54Z" fill="#FF6ED9"/>
<path d="M209.4 307.926C209.4 290.106 195.7 275.766 178.9 275.766C174.3 275.766 169.9 276.82 166 278.824L165.2 279.246C164.2 281.249 163.6 283.463 163.6 285.889C163.6 293.586 169.5 299.807 176.8 299.807C177.4 299.807 178 299.702 178.7 299.702C177.9 300.756 177.5 302.127 177.5 303.603C177.5 306.872 179.9 309.613 182.9 310.035C182.6 310.879 182.5 311.722 182.5 312.566C182.5 316.573 185.6 319.841 189.4 319.841H189.5C190.1 322.794 192.5 324.903 195.5 324.903C196.3 324.903 197.1 324.692 197.8 324.481C198.2 326.695 200.1 328.382 202.3 328.382L204 326.695C207.3 321.423 209.4 314.886 209.4 307.926Z" fill="#4E3734"/>
<path d="M87.8 345.781C87.8 345.781 88.4 335.342 85.5 329.753C82.6 324.165 76.4 321.107 73.5 316.256C70.7 311.406 70.8 304.763 68.1 304.13C65.4 303.498 60.9 314.886 63.8 320.369C66.6 325.852 70.2 329.437 72 335.025C73.8 340.614 76.6 345.57 78.3 347.151C80.1 348.733 87.8 345.781 87.8 345.781Z" fill="#8C503E"/>
<path d="M258.3 471.153C258.3 471.153 261.8 480.96 266.7 484.755C271.5 488.551 278.4 488.657 282.9 491.926C287.4 495.089 289.8 501.205 292.5 500.572C295.2 499.939 294.8 487.602 290.1 483.912C285.4 480.116 280.7 478.429 276.9 474.106C273.1 469.782 268.6 466.514 266.4 465.776C264.2 465.038 258.3 471.153 258.3 471.153Z" fill="#8C503E"/>
<path d="M142.2 492.769C142.2 492.769 122.7 535.685 114.2 569.005C103 613.08 94.2 666.646 94.2 666.646L108.8 666.435C108.8 666.435 126.5 644.714 152.1 600.744C177.9 556.352 189.6 528.198 189.6 528.198C189.6 528.198 206.9 593.995 218.2 604.329C234 618.774 270.9 618.142 282.6 617.298C294.3 616.455 318.1 612.448 318.1 612.448V596.948C318.1 596.948 288.1 591.886 276.1 586.614C264.1 581.342 249.8 577.019 249.8 577.019C249.8 577.019 245 541.801 241.5 523.137C238 504.473 233.2 483.068 233.2 483.068L142.2 492.769Z" fill="#5441AF"/>
<path d="M189.7 528.093L195.5 515.229C195.5 515.229 198.8 522.083 198.4 530.834C198.1 539.586 196.3 551.29 196.3 551.29L189.7 528.093Z" fill="#4F3D9D"/>
<path d="M52 360.754C52 360.754 57.2 360.965 65.7 366.764C84.7 379.734 90.9 407.782 113.9 411.894C133.2 415.374 145.7 409.258 145.7 409.258C145.7 409.258 138.2 431.928 136.2 442.262C134.2 452.595 134.4 471.259 126.4 479.483C118.4 487.708 114.7 491.609 114.7 491.609C114.7 491.609 149.7 498.252 178 492.664C206.3 487.075 221.7 485.072 226.8 485.283C232 485.494 240 486.548 240 486.548C240 486.548 236.8 478.956 233.8 471.259C230.8 463.561 230.1 455.758 230.1 455.758C230.1 455.758 249.1 471.786 252.1 477.058C255.1 482.33 255.6 491.082 255.6 491.082C255.6 491.082 259.9 481.276 262.9 477.902C265.9 474.527 268.2 470.521 271.9 467.568C275.6 464.616 277.7 462.296 277.7 462.296C277.7 462.296 273.7 462.612 270.2 459.344C266.7 455.969 247 430.557 243 426.445C239 422.438 224 405.145 224 405.145C224 405.145 222.2 350.104 191.3 351.158C171.8 351.791 160.5 356.958 148.1 364.022C135.8 371.087 124.9 378.785 124.9 378.785C124.9 378.785 103.9 365.393 96.6 349.366C94.1 343.988 93 339.981 93 339.981C93 339.981 85.3 341.457 74.7 346.941C63.4 352.951 52 360.754 52 360.754Z" fill="#FF353A"/>
<path d="M145.7 409.258C145.7 409.258 156.6 408.941 166.9 405.673C177.2 402.298 188.3 397.132 191 390.489C193.7 383.846 194.9 377.097 194.9 377.097C194.9 377.097 196.8 388.169 192.4 398.608C188 409.047 173.8 414.108 168.5 416.112C163.2 418.115 141.8 421.7 141.8 421.7L145.7 409.258Z" fill="#E2303D"/>
<path d="M225.2 416.955C225.2 416.955 226.8 435.513 227.5 440.996C228.2 446.479 230.3 455.969 230.3 455.969L235.5 460.398C235.5 460.398 231.8 448.694 230.4 440.364C228.8 432.034 225.2 416.955 225.2 416.955Z" fill="#E2303D"/>
<path d="M186.4 485.494C182.9 485.494 180.1 482.541 180.1 478.851C180.1 475.16 182.9 472.208 186.4 472.208C189.9 472.208 192.7 475.16 192.7 478.851C192.7 482.541 189.9 485.494 186.4 485.494ZM186.4 473.262C183.5 473.262 181.1 475.793 181.1 478.851C181.1 481.909 183.5 484.439 186.4 484.439C189.3 484.439 191.7 481.909 191.7 478.851C191.7 475.793 189.4 473.262 186.4 473.262Z" fill="#5441AF"/>
<path d="M214 379.101C216 379.101 217.8 378.046 219 376.465C218.9 376.043 218.7 375.621 218.6 375.199C217.7 376.887 216 377.941 214.1 377.941C211.2 377.941 208.8 375.41 208.8 372.352C208.8 369.295 211.2 366.764 214.1 366.764C214.4 366.764 214.7 366.764 215 366.869C214.8 366.448 214.6 366.131 214.4 365.71C214.3 365.71 214.2 365.71 214.1 365.71C210.6 365.71 207.8 368.662 207.8 372.352C207.8 376.043 210.5 379.101 214 379.101Z" fill="#5441AF"/>
<path d="M131.6 488.446C136.6 488.446 140.7 484.123 140.7 478.851C140.7 473.578 136.7 469.361 131.7 469.255C131.6 469.572 131.5 469.993 131.4 470.31C131.5 470.31 131.5 470.31 131.6 470.31C136.1 470.31 139.7 474.106 139.7 478.851C139.7 483.596 136.1 487.392 131.6 487.392C128.2 487.392 125.2 485.072 124 481.908C123.7 482.225 123.5 482.436 123.2 482.752C124.7 486.126 127.9 488.446 131.6 488.446Z" fill="#5441AF"/>
<path d="M156 383.951C152 383.951 148.8 380.577 148.8 376.359C148.8 372.142 152 368.767 156 368.767C160 368.767 163.2 372.142 163.2 376.359C163.2 380.577 159.9 383.951 156 383.951ZM156 369.927C152.6 369.927 149.8 372.88 149.8 376.465C149.8 380.05 152.6 383.002 156 383.002C159.4 383.002 162.2 380.05 162.2 376.465C162.2 372.88 159.4 369.927 156 369.927Z" fill="#5441AF"/>
<path d="M98.8 369.927C96.3 369.927 94.2 367.713 94.2 365.077C94.2 362.441 96.3 360.226 98.8 360.226C101.3 360.226 103.4 362.441 103.4 365.077C103.4 367.713 101.3 369.927 98.8 369.927ZM98.8 361.281C96.8 361.281 95.2 362.968 95.2 365.077C95.2 367.186 96.8 368.873 98.8 368.873C100.8 368.873 102.4 367.186 102.4 365.077C102.4 362.968 100.8 361.281 98.8 361.281Z" fill="#5441AF"/>
<path d="M246.9 430.874C246.3 432.034 245.1 432.772 243.8 432.772C241.8 432.772 240.2 431.085 240.2 428.976C240.2 427.5 241 426.234 242.2 425.602C242 425.391 241.7 425.074 241.5 424.863C240.1 425.707 239.2 427.289 239.2 429.081C239.2 431.717 241.3 433.932 243.8 433.932C245.4 433.932 246.8 433.088 247.6 431.823C247.4 431.401 247.2 431.085 246.9 430.874Z" fill="#5441AF"/>
<path d="M198.4 419.169C195.9 419.169 193.8 416.955 193.8 414.319C193.8 411.683 195.9 409.469 198.4 409.469C200.9 409.469 203 411.683 203 414.319C203 416.955 201 419.169 198.4 419.169ZM198.4 410.628C196.4 410.628 194.8 412.316 194.8 414.424C194.8 416.533 196.4 418.22 198.4 418.22C200.4 418.22 202 416.533 202 414.424C202 412.316 200.4 410.628 198.4 410.628Z" fill="#5441AF"/>
<path d="M66.2 362.335C64.6 362.335 63.2 363.39 62.5 364.761C62.8 364.971 63.1 365.077 63.4 365.288C63.9 364.128 65 363.39 66.2 363.39C67.9 363.39 69.3 364.866 69.3 366.659C69.3 367.502 69 368.346 68.4 368.873C68.7 369.084 68.9 369.295 69.2 369.505C69.9 368.767 70.3 367.713 70.3 366.659C70.3 364.233 68.5 362.335 66.2 362.335Z" fill="#5441AF"/>
<path d="M150.2 442.367C147.2 442.367 144.8 439.836 144.8 436.673C144.8 433.51 147.2 430.979 150.2 430.979C153.2 430.979 155.6 433.51 155.6 436.673C155.6 439.836 153.2 442.367 150.2 442.367ZM150.2 431.928C147.8 431.928 145.8 434.037 145.8 436.568C145.8 439.098 147.8 441.207 150.2 441.207C152.6 441.207 154.6 439.098 154.6 436.568C154.6 434.037 152.7 431.928 150.2 431.928Z" fill="#5441AF"/>
<path d="M248.9 464.721C246.7 464.721 244.8 466.092 243.9 468.095C244.2 468.306 244.4 468.623 244.7 468.833C245.3 467.041 246.9 465.67 248.9 465.67C251.3 465.67 253.3 467.779 253.3 470.31C253.3 472.313 252.1 474 250.4 474.633C250.7 474.949 250.9 475.16 251.1 475.476C253 474.527 254.3 472.629 254.3 470.31C254.3 467.252 251.9 464.721 248.9 464.721Z" fill="#5441AF"/>
<path d="M133.5 403.247C131.2 403.247 129.4 401.349 129.4 398.924C129.4 396.499 131.2 394.601 133.5 394.601C135.8 394.601 137.6 396.499 137.6 398.924C137.6 401.349 135.8 403.247 133.5 403.247ZM133.5 395.656C131.8 395.656 130.4 397.132 130.4 398.924C130.4 400.717 131.8 402.193 133.5 402.193C135.2 402.193 136.6 400.717 136.6 398.924C136.6 397.132 135.2 395.656 133.5 395.656Z" fill="#5441AF"/>
<path d="M214 456.075C210.8 456.075 208.3 453.333 208.3 450.065C208.3 446.796 210.9 444.054 214 444.054C217.1 444.054 219.7 446.796 219.7 450.065C219.7 453.333 217.2 456.075 214 456.075ZM214 445.003C211.4 445.003 209.3 447.218 209.3 449.959C209.3 452.701 211.4 454.915 214 454.915C216.6 454.915 218.7 452.701 218.7 449.959C218.7 447.218 216.6 445.003 214 445.003Z" fill="#5441AF"/>
<path d="M173.9 453.228C172.2 453.228 170.9 451.752 170.9 450.064C170.9 448.272 172.3 446.901 173.9 446.901C175.5 446.901 176.9 448.377 176.9 450.064C176.9 451.752 175.6 453.228 173.9 453.228ZM173.9 447.85C172.8 447.85 171.9 448.799 171.9 449.959C171.9 451.119 172.8 452.068 173.9 452.068C175 452.068 175.9 451.119 175.9 449.959C175.9 448.799 175 447.85 173.9 447.85Z" fill="#5441AF"/>
<path d="M101.3 406.516C102.1 405.462 102.6 404.091 102.6 402.509C102.6 398.819 99.8 395.866 96.3 395.866C94.7 395.866 93.2 396.499 92.1 397.554C92.3 397.87 92.6 398.081 92.8 398.397C93.7 397.554 95 396.921 96.3 396.921C99.2 396.921 101.6 399.451 101.6 402.509C101.6 403.775 101.2 404.935 100.5 405.884C100.7 406.094 101 406.305 101.3 406.516Z" fill="#5441AF"/>
<path d="M78.3 670.126C78.3 670.126 79.4 670.758 80.1 671.918C80.8 673.078 80.6 674.871 80.6 674.871" stroke="#5441AF" stroke-miterlimit="10"/>
<path d="M82 668.544C82 668.544 83.1 669.177 83.8 670.336C84.5 671.496 84.3 673.289 84.3 673.289" stroke="#5441AF" stroke-miterlimit="10"/>
<path d="M85.6 667.595C85.6 667.595 86.7 668.228 87.4 669.387C88.1 670.547 87.9 672.34 87.9 672.34" stroke="#5441AF" stroke-miterlimit="10"/>
<path d="M88.9 666.435C88.9 666.435 90 667.068 90.7 668.228C91.4 669.387 91.2 671.18 91.2 671.18" stroke="#5441AF" stroke-miterlimit="10"/>
<path d="M322.9 627.105C322.9 627.105 323.4 625.839 324.5 625.101C325.6 624.363 327.3 624.468 327.3 624.468" stroke="#5441AF" stroke-miterlimit="10"/>
<path d="M321.2 623.309C321.2 623.309 321.7 622.043 322.8 621.305C323.9 620.567 325.6 620.672 325.6 620.672" stroke="#5441AF" stroke-miterlimit="10"/>
<path d="M320.2 619.513C320.2 619.513 320.7 618.247 321.8 617.509C322.9 616.771 324.6 616.876 324.6 616.876" stroke="#5441AF" stroke-miterlimit="10"/>
<path d="M318.9 616.138C318.9 616.138 319.4 614.873 320.5 614.135C321.6 613.397 323.3 613.502 323.3 613.502" stroke="#5441AF" stroke-miterlimit="10"/>
<path d="M575.1 342.196L606.9 382.475L592.1 405.462L561.5 367.397L575.1 342.196Z" fill="#4F3D9D"/>
<path d="M561.5 370.033L561.6 367.608L575.2 343.777L605.3 382.475L595 398.081L584.2 393.547L561.5 370.033Z" fill="white"/>
<path d="M614.5 413.792L616 412.316L588.8 377.519L561.5 369.295V370.033L569.2 380.472L614.5 413.792Z" fill="#F7F7F7"/>
<path d="M588.2 378.574L616 414.53L590.7 409.574L561.5 370.033L588.2 378.574Z" fill="#5441AF"/>
<path d="M561.5 367.397V370.033L562.1 370.244L562 366.342L561.5 367.397Z" fill="#362E2D"/>
<path d="M652.6 511.855C652.6 511.855 631.8 530.834 623.8 538.743C615.8 546.651 611.8 549.814 609.8 555.614C607.8 561.413 603.3 603.063 602.5 616.033C601.7 629.003 601 656.945 601 656.945H614.8C614.8 656.945 619.8 638.492 624.8 627.632C629.8 616.771 637.1 604.434 640.3 594.944C643.5 585.454 645.1 572.485 645.1 572.485C645.1 572.485 657.9 571.219 672.9 563.311C687.9 555.403 694.2 551.396 694.2 551.396C694.2 551.396 703.5 570.903 711.5 587.247C719.5 603.591 722.5 608.652 729.5 615.717C736.5 622.781 763.7 635.118 776.2 639.125C793.5 644.608 808.6 646.717 808.6 646.717L811.1 632.693C811.1 632.693 791.1 622.043 780.2 614.135C770.2 606.859 761.9 598.635 759.4 591.781C756.9 584.927 753.3 545.807 750.1 528.198C746.9 510.589 740.6 503.103 740.6 503.103L652.6 511.855Z" fill="#FF6ED9"/>
<path d="M694.1 551.396C694.1 551.396 698.2 549.393 701.7 547.073C705.2 544.753 708.1 542.222 708.1 542.222C708.1 542.222 707.3 548.022 704.8 553.083C702.3 558.144 699.3 562.362 699.3 562.362L694.1 551.396Z" fill="#FF5ED2"/>
<path d="M657.4 557.828L651.4 552.872L656.1 546.546L662.1 551.501L657.4 557.828ZM652.8 552.767L657.2 556.352L660.6 551.712L656.2 548.127L652.8 552.767Z" fill="#5441AF"/>
<path d="M621.2 561.097L616.5 559.831L617.7 554.876L622.4 556.141L621.2 561.097ZM617.7 559.093L620.5 559.831L621.2 556.879L618.4 556.141L617.7 559.093Z" fill="#5441AF"/>
<path d="M690.1 536.423L685.4 535.158L686.6 530.202L691.3 531.467L690.1 536.423ZM686.6 534.42L689.4 535.158L690.1 532.205L687.3 531.467L686.6 534.42Z" fill="#5441AF"/>
<path d="M635.8 582.818L629.4 576.702L635.2 569.954L641.6 576.07L635.8 582.818ZM630.8 576.702L635.7 581.447L640.2 576.281L635.3 571.536L630.8 576.702Z" fill="#5441AF"/>
<path d="M721.4 537.583L715.7 532.311L720.7 526.3L726.4 531.573L721.4 537.583ZM717.1 532.311L721.3 536.212L725 531.783L720.8 527.882L717.1 532.311Z" fill="#5441AF"/>
<path d="M614.2 646.19L609.5 644.714L610.9 639.758L615.6 641.234L614.2 646.19ZM610.8 643.976L613.5 644.819L614.3 641.972L611.6 641.129L610.8 643.976Z" fill="#5441AF"/>
<path d="M607.9 626.577L606.4 619.091L613.5 617.509L615 624.996L607.9 626.577ZM607.6 619.829L608.7 625.312L613.9 624.152L612.8 618.669L607.6 619.829Z" fill="#5441AF"/>
<path d="M605.2 587.985C605.2 588.407 605.1 588.934 605.1 589.356L606.4 588.512L608.9 592.519L605.1 595.155L604.6 594.417C604.5 594.944 604.5 595.577 604.4 596.104L604.7 596.631L610.2 592.941L606.7 587.141L605.2 587.985Z" fill="#5441AF"/>
<path d="M643.2 526.089L638.7 528.936L637.1 526.195C636.8 526.406 636.6 526.617 636.3 526.933L638.3 530.413L644.5 526.511L641.8 521.872C641.5 522.083 641.3 522.293 641 522.61L643.2 526.089Z" fill="#5441AF"/>
<path d="M733.5 590.516L728.7 584.294L734.6 579.233L739.4 585.454L733.5 590.516ZM730.2 584.505L733.7 589.039L738 585.349L734.5 580.815L730.2 584.505Z" fill="#5441AF"/>
<path d="M736.3 614.24L732 611.921L734.2 607.387L738.5 609.706L736.3 614.24ZM733.3 611.499L735.9 612.87L737.2 610.128L734.6 608.757L733.3 611.499Z" fill="#5441AF"/>
<path d="M741 551.923L736.7 549.603L738.9 545.069L743.2 547.389L741 551.923ZM738 549.076L740.6 550.447L741.9 547.705L739.3 546.335L738 549.076Z" fill="#5441AF"/>
<path d="M761.8 596.737C761.6 596.42 761.4 596.21 761.2 595.893L757.6 598.529L753.8 592.73L758.5 589.356C758.4 589.039 758.3 588.618 758.3 588.196L752.5 592.414L757.4 599.9L761.8 596.737Z" fill="#5441AF"/>
<path d="M798.6 636.278L791.3 636.173L791.4 628.475L798.7 628.581L798.6 636.278ZM792.3 635.118L797.6 635.224L797.7 629.635L792.4 629.53L792.3 635.118Z" fill="#5441AF"/>
<path d="M764 633.115L761.8 626.577L768 624.258L770.2 630.795L764 633.115ZM763.1 627.21L764.6 631.744L768.9 630.162L767.4 625.628L763.1 627.21Z" fill="#5441AF"/>
<path d="M705.3 574.699L714.4 578.39L711.3 586.93C711.3 587.036 711.4 587.141 711.4 587.141C711.6 587.458 711.7 587.774 711.9 588.196L715.7 577.757L704.6 573.223C704.8 573.75 705 574.172 705.3 574.699Z" fill="#5441AF"/>
<path d="M624 608.546L629.5 616.56L630.8 615.506C631.2 614.768 631.5 614.135 631.9 613.397L629.7 615.084L625.4 608.757L631.4 604.223L634.4 608.546C634.6 608.23 634.7 607.808 634.9 607.492L631.7 602.747L624 608.546Z" fill="#5441AF"/>
<path d="M695.8 367.608C712.645 367.608 726.3 353.209 726.3 335.447C726.3 317.686 712.645 303.287 695.8 303.287C678.955 303.287 665.3 317.686 665.3 335.447C665.3 353.209 678.955 367.608 695.8 367.608Z" fill="#DF8E89"/>
<path d="M601.1 656.84C601.1 656.84 601.4 660.847 599.8 661.69C596.7 663.588 591.6 666.646 588.7 668.649C584.4 671.602 579.1 676.769 579.6 679.405C580.1 681.935 589.2 679.616 602.4 674.238C615.6 668.966 618.1 670.442 615.8 662.217C614.8 658.527 614.5 656.523 614.5 656.523L601.1 656.84Z" fill="#5441AF"/>
<path d="M808.4 646.612C808.4 646.612 812.1 647.139 812.7 648.931C813.8 652.517 815.7 658.421 817 661.796C818.9 666.857 822.7 673.289 825.2 673.289C827.7 673.289 827.3 663.377 825 648.721C822.7 634.064 824.6 631.744 816.5 632.482C812.9 632.799 811 632.693 811 632.693L808.4 646.612Z" fill="#5441AF"/>
<path d="M603.9 415.69C603.9 415.69 601.6 405.567 597.2 401.139C592.9 396.71 586.1 395.656 582 391.965C577.9 388.275 576.2 381.842 573.5 382.053C570.8 382.264 569.7 394.601 573.9 398.924C578.1 403.248 582.6 405.567 585.9 410.418C589.2 415.268 593.3 419.064 595.3 420.013C597.3 420.962 603.9 415.69 603.9 415.69Z" fill="#DF8E89"/>
<path d="M755.7 305.079C755.7 305.079 755.5 297.909 758.4 292.321C761.3 286.732 769.5 283.358 772.3 278.508C775.1 273.657 779.7 268.807 782.4 268.174C785.1 267.541 784.9 276.293 782.1 281.776C779.3 287.259 773.2 288.63 771.4 294.324C769.6 300.018 766.8 304.869 765.2 306.45C763.5 307.926 755.7 305.079 755.7 305.079Z" fill="#DF8E89"/>
<path d="M674.2 299.385C674.2 299.385 672.2 312.566 683.3 319.736C694.4 326.906 702.2 323.321 702.2 323.321C702.2 323.321 699.9 336.08 707.1 346.097C714.3 356.114 717.5 358.118 717.5 358.118C717.5 358.118 735.4 344.304 731.4 329.437C729.1 321.001 723.7 318.998 723.7 318.998C723.7 318.998 724 310.668 715.7 304.236C707.4 297.804 691.4 303.076 684.7 302.654C678 302.232 674.2 299.385 674.2 299.385Z" fill="#FF353A"/>
<path d="M594.1 422.227L603.6 411.683L610.6 419.38C610.6 419.38 620.4 421.278 625.2 422.965C630 424.653 634.1 427.5 634.1 427.5C634.1 427.5 657 405.462 669.2 399.03C681.4 392.492 700.4 388.485 715.2 380.788C730 373.091 743.2 358.328 743.2 358.328C743.2 358.328 748.2 341.668 750 334.92C751.8 328.277 754 316.467 754 316.467V304.763H767V315.518C767 315.518 771 326.801 772.2 345.886C773.4 365.077 769 380.472 769 380.472C769 380.472 751.5 397.554 745.3 403.986C739.1 410.523 731 419.486 731 419.486C731 419.486 736.7 441.102 741.5 463.245C746.3 485.388 747.2 505.423 747.2 505.423C747.2 505.423 725.9 522.294 696.5 523.348C667.1 524.402 647.7 512.065 647.7 512.065C647.7 512.065 648 493.824 649.4 481.698C650.7 469.572 656.7 451.646 656.7 451.646C656.7 451.646 651.7 457.656 647 461.347C642.3 465.038 637 467.99 637 467.99C637 467.99 622.8 462.929 614.2 451.119C605.5 439.309 601.5 429.292 601.5 429.292L594.1 422.227Z" fill="#5441AF"/>
<path d="M656.7 451.752C656.7 451.752 662.3 434.564 665.5 425.074C668.7 415.584 670.2 411.999 670.2 411.999C670.2 411.999 662.4 419.802 658 432.772C653.6 445.741 650.3 458.711 650.3 458.711L656.7 451.752Z" fill="#4F3D9D"/>
<path d="M497.2 509.64L499.3 505.633L532.1 485.494L545 509.64L544.4 512.593L510.3 533.471L497.2 509.64Z" fill="#FF5ED2"/>
<path d="M531.429 488.824L497.222 509.649L510.222 533.39L544.429 512.565L531.429 488.824Z" fill="#FF6ED9"/>
<path d="M363.2 665.17C363.2 665.17 357.6 629.002 362.9 593.573C368.3 557.617 377.4 520.079 377.4 520.079C377.4 520.079 406.2 526.406 426.7 522.399C447.2 518.392 471.7 511.116 471.7 511.116C471.7 511.116 475.9 531.467 478.3 555.719C480.6 579.971 479.1 576.281 482.4 588.196C485.7 600.111 497.3 634.907 501.6 645.135C506 655.363 510.7 668.017 510.7 668.017H495.4C495.4 668.017 465.2 634.802 452.4 614.768C439.6 594.733 423.8 559.199 423.8 559.199C423.8 559.199 406.8 596.315 399.9 611.71C393 627.21 375.7 668.649 375.7 668.649L363.2 665.17Z" fill="#4E3734"/>
<path d="M425.9 385.111C442.027 385.111 455.1 371.326 455.1 354.322C455.1 337.317 442.027 323.532 425.9 323.532C409.773 323.532 396.7 337.317 396.7 354.322C396.7 371.326 409.773 385.111 425.9 385.111Z" fill="#DF8E89"/>
<path d="M450.9 370.349C453.6 365.709 455.2 360.121 455.2 354.322C455.2 337.24 442.1 323.532 426 323.532C420 323.532 414.5 325.43 409.9 328.699C409.9 328.699 406.7 339.77 414.5 347.046C422.4 354.427 430.9 350.209 430.9 350.209C430.9 350.209 427.6 360.859 436.2 367.502C443.5 373.196 450.9 370.349 450.9 370.349Z" fill="#4E3734"/>
<path d="M454.2 341.879C468.007 341.879 479.2 330.077 479.2 315.518C479.2 300.96 468.007 289.157 454.2 289.157C440.393 289.157 429.2 300.96 429.2 315.518C429.2 330.077 440.393 341.879 454.2 341.879Z" fill="#4E3734"/>
<path d="M427.1 541.801C427.1 541.801 426.1 548.971 425.3 552.767C424.5 556.563 423.7 559.304 423.7 559.304L432.3 577.757C432.3 577.757 432.7 562.468 431.1 553.927C429.5 545.386 427.1 541.801 427.1 541.801Z" fill="#362E2D"/>
<path d="M363.2 665.17C363.2 665.17 353.3 666.962 348.2 667.595C343.1 668.228 336.5 670.02 335.9 672.551C335.3 675.081 344.1 677.612 357.9 679.194C371.7 680.67 372.9 682.357 374.1 674.132C374.6 670.336 375.5 668.86 375.5 668.86L363.2 665.17Z" fill="#FF353A"/>
<path d="M497.9 668.228C497.9 668.228 488.8 669.915 484 672.024C479.2 674.132 475.5 676.347 475.5 678.983C475.5 680.986 484.2 680.354 497.8 680.459C511.7 680.564 515.6 680.881 513.2 672.973C512.4 670.231 510.1 668.017 510.1 668.017L497.9 668.228Z" fill="#FF353A"/>
<path d="M334.5 449.01C334.5 449.01 329.9 443 326.7 441.102C323.5 439.204 318 437.095 315.4 435.513C312.8 433.932 307.6 430.241 306.1 432.666C304.6 435.091 306.9 439.309 310.5 441.524C314.1 443.843 319.7 453.966 325 454.704C330.3 455.442 332.6 455.653 332.6 455.653L334.5 449.01Z" fill="#DF8E89"/>
<path d="M511.6 487.286C511.6 487.286 513.9 486.337 517.3 489.922C520.7 493.507 523.9 501.732 525.1 504.79C526.3 507.848 526.6 510.906 527.7 513.014C528.8 515.229 529.1 517.548 527.7 518.392C526.3 519.236 522.1 515.861 518.8 512.382C515.5 508.902 511.5 506.582 509.4 501.837C507.4 497.303 507.6 493.613 507.6 493.613L511.6 487.286Z" fill="#DF8E89"/>
<path d="M336 444.16C336 444.16 351.6 447.112 357.1 448.167C362.6 449.221 369.1 450.486 369.1 450.486C369.1 450.486 384.6 429.608 395.2 418.115C405.8 406.727 411.6 398.819 427.3 398.819C447.5 398.819 471.2 425.812 484.1 441.734C499 460.187 513.2 484.755 513.2 484.755L505.4 497.198C505.4 497.198 487.3 482.752 480.1 478.534C472.9 474.317 462.4 468.728 462.4 468.728C462.4 468.728 466.2 479.589 468.8 491.715C471.4 503.841 471.8 511.011 471.8 511.011C471.8 511.011 455.1 522.926 425.7 524.719C396.3 526.511 377.5 519.974 377.5 519.974C377.5 519.974 379.1 508.059 380.8 500.256C382.5 492.558 384.4 485.704 384.4 485.704C384.4 485.704 373.8 486.653 360.1 481.592C342.3 475.055 331.2 460.398 331.2 460.398L336 444.16Z" fill="#7B6DCF"/>
<path d="M384.3 485.81C384.3 485.81 381.8 495.3 381.1 498.674C380.4 502.048 379.6 506.266 379.6 506.266C379.6 506.266 411 473.895 417.8 465.986C424.6 458.078 436.7 444.054 436.4 431.717C436.1 419.38 433.8 416.639 433.8 416.639C433.8 416.639 435.2 424.547 432.5 432.666C428.7 443.949 412.9 458.605 405.4 465.986C399.2 472.208 384.3 485.81 384.3 485.81Z" fill="#6A5AC1"/>
<path d="M453.4 435.619C453.4 435.619 457.5 448.061 459.1 453.86C460.7 459.66 462.3 468.728 462.3 468.728L468.3 471.997C468.3 471.997 464 458.816 461.3 451.541C458.6 444.265 453.4 435.619 453.4 435.619Z" fill="#6A5AC1"/>
<path d="M456.8 477.164L456.3 481.698L459.5 484.65L455.4 485.494L453.7 489.606L451.6 485.704L447.3 485.388L450.2 482.014L449.3 477.691L453.1 479.483L456.8 477.164Z" fill="#FF6ED9"/>
<path d="M471.7 511.116C471.7 511.116 471.6 509.324 471.2 505.95L469.2 508.48L465.7 508.164L467.6 511.327L466.3 514.385C469.9 512.382 471.7 511.116 471.7 511.116Z" fill="#FF6ED9"/>
<path d="M388.4 428.976L390 431.928L391.3 428.765L394.5 428.027L392 425.812L392.4 422.438L390.4 423.704C389 425.285 387.6 426.972 386.2 428.765L388.4 428.976Z" fill="#FF6ED9"/>
<path d="M389 522.821L392.5 521.977L389.2 519.13L389.6 514.701L386 517.127L382.1 515.44L383.2 519.763L381.9 521.344C383.7 521.766 386.1 522.293 389 522.821Z" fill="#FF6ED9"/>
<path d="M439.4 508.164L441.8 508.902L443.7 507.11L443.8 509.746L446 511.116L443.7 512.065L443.1 514.596L441.5 512.593L439.1 512.804L440.4 510.589L439.4 508.164Z" fill="#FF6ED9"/>
<path d="M391.4 457.024L394.5 457.867L397 455.653L397.2 459.133L399.9 460.82L396.9 462.085L396.2 465.354L394.1 462.718L390.9 463.034L392.7 460.187L391.4 457.024Z" fill="#FF6ED9"/>
<path d="M501.1 465.354L500.8 465.565L497.7 464.721L499 467.884L497.3 470.731L500.5 470.415L502.5 473.051L503.2 469.782L503.8 469.572C503 468.201 502.1 466.83 501.1 465.354Z" fill="#FF6ED9"/>
<path d="M426.7 463.772L428.4 464.194L429.7 463.034L429.8 464.827L431.3 465.776L429.7 466.408L429.3 468.201L428.2 466.83L426.5 467.041L427.4 465.459L426.7 463.772Z" fill="#FF6ED9"/>
<path d="M368 475.687L369.4 474.633V472.84L370.8 473.895L372.4 473.262L371.9 475.055L373 476.531H371.2L370.2 478.007L369.7 476.215L368 475.687Z" fill="#FF6ED9"/>
<path d="M500.9 488.868L502.6 489.29L503.9 488.13L504 489.922L505.5 490.871L503.9 491.609L503.5 493.402L502.4 491.926L500.7 492.137L501.6 490.555L500.9 488.868Z" fill="#FF6ED9"/>
<path d="M426.7 407.149L428.4 407.676L429.7 406.411L429.8 408.309L431.3 409.258L429.7 409.89L429.3 411.683L428.2 410.312L426.5 410.418L427.4 408.836L426.7 407.149Z" fill="#FF6ED9"/>
<path d="M470.9 440.047L472.6 440.469L473.9 439.309L474 441.102L475.5 442.051L473.9 442.683L473.5 444.476L472.4 443.105L470.6 443.316L471.6 441.734L470.9 440.047Z" fill="#FF6ED9"/>
<path d="M346.6 457.551L349.5 458.395L351.8 456.286L352 459.449L354.6 461.136L351.8 462.296L351.1 465.459L349.2 462.929L346.1 463.245L347.8 460.503L346.6 457.551Z" fill="#FF6ED9"/>
<path d="M408.6 489.606L413.8 493.824L419.9 491.609L417.8 498.041L421.6 503.524L415.2 503.419L411.4 509.008L409.5 502.47L403.4 500.361L408.7 496.46L408.6 489.606Z" fill="#FF6ED9"/>
<path d="M411 422.438L415.1 425.707L420 424.02L418.3 429.081L421.4 433.51L416.2 433.404L413.2 437.728L411.7 432.561L406.9 430.979L411.1 427.816L411 422.438Z" fill="#FF6ED9"/>
<path d="M480.1 467.568L477.3 463.034L475.6 468.095L470.6 469.466L474.6 472.84L474.5 475.476C475.2 475.898 475.9 476.215 476.5 476.636L478.6 475.16L483.4 477.164L482 471.997L485.3 467.779L480.1 467.568Z" fill="#FF6ED9"/>
<path d="M447.9 422.438L453.6 419.17L459.4 422.227L458.2 415.479L459 414.635C456.5 412.421 453.9 410.312 451.3 408.414L450.7 409.89L444.3 411.05L449 415.69L447.9 422.438Z" fill="#FF6ED9"/>
<path d="M885.5 493.507C885.5 493.507 881.7 532.522 896.5 578.179C911.3 623.836 929.3 666.33 929.3 666.33H944.6C944.6 666.33 947.1 626.156 946.6 599.795C946.1 573.434 945.8 553.61 945.8 553.61C945.8 553.61 957.7 565.842 964.3 570.27C970.9 574.699 978.7 574.383 987.8 572.485C996.9 570.587 1041.7 558.882 1041.7 558.882L1040.7 545.702C1040.7 545.702 1021.2 539.059 1009.1 536.739C997 534.419 983.3 529.885 983.3 529.885C983.3 529.885 977.4 512.276 970.4 497.62C963.4 482.963 960.6 478.218 960.6 478.218L885.5 493.507Z" fill="#7B6DCF"/>
<path d="M945.8 553.61C945.8 553.61 936.9 546.018 930.9 539.164C924.9 532.311 920.3 524.824 920.3 524.824C920.3 524.824 926.7 540.535 934.9 549.076C942.5 557.09 945.9 559.093 945.9 559.093L945.8 553.61Z" fill="#6A5AC1"/>
<path d="M938.3 578.495L930.1 570.798L940.5 571.219L938.3 578.495Z" fill="#FF6ED9"/>
<path d="M916.9 556.352L920.9 549.603L921.8 557.09L916.9 556.352Z" fill="#FF6ED9"/>
<path d="M938.1 651.357L935.3 643.87L941.6 647.561L938.1 651.357Z" fill="#FF6ED9"/>
<path d="M952.1 508.902L953.9 517.232L946.4 514.491L952.1 508.902Z" fill="#FF6ED9"/>
<path d="M920.8 628.792L925.6 628.159L923.6 632.798L920.8 628.792Z" fill="#FF6ED9"/>
<path d="M972.3 542.328L977.2 541.59L975.1 546.335L972.3 542.328Z" fill="#FF6ED9"/>
<path d="M992.2 550.974L995.8 544.437L999.4 550.447L992.2 550.974Z" fill="#FF6ED9"/>
<path d="M1030.3 554.77L1035.3 549.814L1038.1 554.348L1030.3 554.77Z" fill="#FF6ED9"/>
<path d="M923.5 505.317L924.2 500.15L927.9 503.63L923.5 505.317Z" fill="#FF6ED9"/>
<path d="M908.7 588.618L916.8 597.264L905.8 599.9L908.7 588.618Z" fill="#FF6ED9"/>
<path d="M954.2 535.896L950.4 547.389L943.3 538.11L954.2 535.896Z" fill="#FF6ED9"/>
<path d="M1009.8 541.59L1019.1 550.763L1008.7 555.614L1009.8 541.59Z" fill="#FF6ED9"/>
<path d="M902.5 519.025L909.5 528.198L912 519.025H902.5Z" fill="#FF6ED9"/>
<path d="M970.4 497.62C970.2 497.092 969.9 496.671 969.7 496.143L966.5 493.613L967.1 511.749L974.2 505.95C973 503.208 971.7 500.361 970.4 497.62Z" fill="#FF6ED9"/>
<path d="M885.1 506.688C885.1 509.113 885.2 511.749 885.3 514.702L890 515.44L885.5 506.371L885.1 506.688Z" fill="#FF6ED9"/>
<path d="M946.6 609.495C946.6 606.121 946.6 602.852 946.5 599.795C946.5 599.162 946.5 598.529 946.5 597.897L931.1 603.063L946.6 609.495Z" fill="#FF6ED9"/>
<path d="M987.1 559.093L975.2 567.634L984.3 573.223C985.4 573.012 986.5 572.801 987.7 572.59C988.6 572.379 990 572.063 991.6 571.747L987.1 559.093Z" fill="#FF6ED9"/>
<path d="M891.6 560.78H902.2L892.6 539.903L889.7 552.45C890.4 555.192 891 557.933 891.6 560.78Z" fill="#FF6ED9"/>
<path d="M925.2 361.281C941.327 361.281 954.4 347.496 954.4 330.491C954.4 313.487 941.327 299.702 925.2 299.702C909.073 299.702 896 313.487 896 330.491C896 347.496 909.073 361.281 925.2 361.281Z" fill="#8C503E"/>
<path d="M1041.5 558.882C1041.5 558.882 1044.1 569.849 1045.7 575.121C1047.3 580.288 1050.3 586.825 1052.7 586.93C1055.2 587.036 1055.8 577.335 1054.4 562.573C1053 547.811 1054.2 545.807 1046.1 545.913C1042.5 545.913 1040.6 545.702 1040.6 545.702L1041.5 558.882Z" fill="#4E3734"/>
<path d="M929.3 666.33C929.3 666.33 918.9 668.649 913.2 670.969C907.5 673.289 903.1 675.82 903.1 678.772C903.1 681.092 913.5 680.354 929.7 680.354C946.3 680.459 951 680.881 948.1 672.024C947.1 668.966 944.6 666.224 944.6 666.224H929.3V666.33Z" fill="#4E3734"/>
<path d="M871.1 289.79C871.1 289.79 868.7 282.304 869 278.191C869.3 274.079 870.5 267.752 870.7 264.378C870.9 261.004 870.7 254.15 873.5 253.939C876.3 253.728 878.4 258.051 878.3 262.691C878.2 267.331 883.3 277.98 881 283.463C878.7 288.946 877.6 291.266 877.6 291.266L871.1 289.79Z" fill="#8C503E"/>
<path d="M1042.1 376.887C1042.1 376.887 1049.2 374.356 1052.1 371.72C1055 369.084 1059.1 364.233 1061.6 362.019C1064.1 359.805 1069.4 355.798 1067.8 353.373C1066.2 350.947 1061.7 351.686 1058.2 354.638C1054.8 357.485 1043.6 359.594 1040.8 364.761C1038 369.927 1037 372.352 1037 372.352L1042.1 376.887Z" fill="#8C503E"/>
<path d="M865.3 287.892L881.8 291.899C881.8 291.899 880.2 334.287 881.5 340.087C883.3 347.679 913.3 372.774 913.3 372.774C913.3 372.774 945.8 373.091 956.3 377.308C966.8 381.526 977.8 389.223 987.8 389.962C997.8 390.7 1034.6 367.818 1034.6 367.818L1046.4 380.472C1046.4 380.472 1035.9 395.128 1028.6 402.404C1019.1 411.894 1003.6 425.074 992.8 426.656C982 428.238 948.5 415.057 948.5 415.057C948.5 415.057 956 442.473 961.7 454.388C967.5 466.303 973 474.949 973 474.949C973 474.949 947.1 491.293 925.2 495.827C903.3 500.361 878.5 495.827 878.5 495.827C878.5 495.827 871.7 476.531 877 445.214C882.3 413.897 886 406.2 886 406.2C886 406.2 859.7 368.556 855.5 353.162C851.3 337.767 865.3 287.892 865.3 287.892Z" fill="#FF6ED9"/>
<path d="M934.8 399.241C934.8 399.241 939.6 406.938 943 410.101C946.3 413.159 948.6 415.057 948.6 415.057L953.7 432.35C953.7 432.35 944.4 425.074 940.9 417.904C937.2 410.629 934.8 399.241 934.8 399.241Z" fill="#FF5ED2"/>
<path d="M886 405.989C886 405.989 889.6 395.339 895.9 387.536C903.1 378.785 913.2 372.774 913.2 372.774L909.9 370.033C909.9 370.033 900.8 373.723 892.7 383.213C885.7 391.438 882.8 401.56 882.8 401.56L886 405.989Z" fill="#FF5ED2"/>
<path d="M954.5 330.491C954.5 313.409 941.4 299.702 925.3 299.702C918.7 299.702 912.5 302.021 907.6 306.028C907.6 306.028 900.5 316.045 910.3 322.478C920.1 328.91 926.9 324.165 926.9 324.165C926.9 324.165 929.4 326.484 929.2 330.597C928.7 338.294 918.9 340.087 919.1 349.998C919.4 363.706 933.9 361.597 933.9 368.873C933.9 375.199 926.2 379.101 925.5 387.536C924.8 396.183 928.7 402.615 934.7 403.986C954.3 408.52 960.5 384.478 961.5 377.73C962.5 370.982 960.1 357.907 956.5 345.148C955.4 341.036 954.5 330.491 954.5 330.491Z" fill="white"/>
<path d="M887.034 229.78L846.936 256.828L863.803 284.63L903.902 257.582L887.034 229.78Z" fill="#4F3D9D"/>
<path d="M883.1 228L886.7 229.687L899.8 257.208L864 282.831L844.3 287.892V254.994L883.1 228Z" fill="white"/>
<path d="M883.3 261.637L843.2 288.736L843.1 254.994L883.1 228L883.3 261.637Z" fill="#5441AF"/>
<path d="M883.1 228L886.9 229.898L887.1 230.531L883.1 228.949V228Z" fill="#4F3D9D"/>
<path d="M885.9 230.003L894.8 256.786L856.6 284.729L864 282.831L899.8 257.208L887.1 230.531L885.9 230.003Z" fill="#F7F7F7"/>
<path d="M876.5 281.038L877.2 273.341L880.1 271.337L880.9 274.501L876.5 281.038Z" fill="#8C503E"/>
<rect width="5.12936" height="17.4978" transform="matrix(-0.710564 0.703633 -0.665093 -0.74676 70.2824 486.751)" fill="#FFEFF0"/>
</g>
<path d="M750.4 260L779.08 218H786.22L757.54 260H750.4ZM754.06 240.68C752.02 240.68 750.22 240.22 748.66 239.3C747.1 238.34 745.86 237 744.94 235.28C744.06 233.52 743.62 231.46 743.62 229.1C743.62 226.74 744.06 224.7 744.94 222.98C745.86 221.26 747.1 219.92 748.66 218.96C750.22 218 752.02 217.52 754.06 217.52C756.1 217.52 757.9 218 759.46 218.96C761.02 219.92 762.24 221.26 763.12 222.98C764 224.7 764.44 226.74 764.44 229.1C764.44 231.46 764 233.52 763.12 235.28C762.24 237 761.02 238.34 759.46 239.3C757.9 240.22 756.1 240.68 754.06 240.68ZM754.06 235.76C755.38 235.76 756.44 235.22 757.24 234.14C758.04 233.02 758.44 231.34 758.44 229.1C758.44 226.86 758.04 225.2 757.24 224.12C756.44 223 755.38 222.44 754.06 222.44C752.78 222.44 751.72 223 750.88 224.12C750.08 225.2 749.68 226.86 749.68 229.1C749.68 231.3 750.08 232.96 750.88 234.08C751.72 235.2 752.78 235.76 754.06 235.76ZM782.56 260.48C780.56 260.48 778.76 260.02 777.16 259.1C775.6 258.14 774.38 256.8 773.5 255.08C772.62 253.32 772.18 251.26 772.18 248.9C772.18 246.54 772.62 244.5 773.5 242.78C774.38 241.06 775.6 239.72 777.16 238.76C778.76 237.8 780.56 237.32 782.56 237.32C784.64 237.32 786.46 237.8 788.02 238.76C789.58 239.72 790.8 241.06 791.68 242.78C792.56 244.5 793 246.54 793 248.9C793 251.26 792.56 253.32 791.68 255.08C790.8 256.8 789.58 258.14 788.02 259.1C786.46 260.02 784.64 260.48 782.56 260.48ZM782.56 255.56C783.88 255.56 784.94 255.02 785.74 253.94C786.54 252.82 786.94 251.14 786.94 248.9C786.94 246.7 786.54 245.04 785.74 243.92C784.94 242.8 783.88 242.24 782.56 242.24C781.28 242.24 780.22 242.8 779.38 243.92C778.58 245 778.18 246.66 778.18 248.9C778.18 251.14 778.58 252.82 779.38 253.94C780.22 255.02 781.28 255.56 782.56 255.56Z" fill="#534FD2"/>
<path d="M745.4 255L774.08 213H781.22L752.54 255H745.4ZM749.06 235.68C747.02 235.68 745.22 235.22 743.66 234.3C742.1 233.34 740.86 232 739.94 230.28C739.06 228.52 738.62 226.46 738.62 224.1C738.62 221.74 739.06 219.7 739.94 217.98C740.86 216.26 742.1 214.92 743.66 213.96C745.22 213 747.02 212.52 749.06 212.52C751.1 212.52 752.9 213 754.46 213.96C756.02 214.92 757.24 216.26 758.12 217.98C759 219.7 759.44 221.74 759.44 224.1C759.44 226.46 759 228.52 758.12 230.28C757.24 232 756.02 233.34 754.46 234.3C752.9 235.22 751.1 235.68 749.06 235.68ZM749.06 230.76C750.38 230.76 751.44 230.22 752.24 229.14C753.04 228.02 753.44 226.34 753.44 224.1C753.44 221.86 753.04 220.2 752.24 219.12C751.44 218 750.38 217.44 749.06 217.44C747.78 217.44 746.72 218 745.88 219.12C745.08 220.2 744.68 221.86 744.68 224.1C744.68 226.3 745.08 227.96 745.88 229.08C746.72 230.2 747.78 230.76 749.06 230.76ZM777.56 255.48C775.56 255.48 773.76 255.02 772.16 254.1C770.6 253.14 769.38 251.8 768.5 250.08C767.62 248.32 767.18 246.26 767.18 243.9C767.18 241.54 767.62 239.5 768.5 237.78C769.38 236.06 770.6 234.72 772.16 233.76C773.76 232.8 775.56 232.32 777.56 232.32C779.64 232.32 781.46 232.8 783.02 233.76C784.58 234.72 785.8 236.06 786.68 237.78C787.56 239.5 788 241.54 788 243.9C788 246.26 787.56 248.32 786.68 250.08C785.8 251.8 784.58 253.14 783.02 254.1C781.46 255.02 779.64 255.48 777.56 255.48ZM777.56 250.56C778.88 250.56 779.94 250.02 780.74 248.94C781.54 247.82 781.94 246.14 781.94 243.9C781.94 241.7 781.54 240.04 780.74 238.92C779.94 237.8 778.88 237.24 777.56 237.24C776.28 237.24 775.22 237.8 774.38 238.92C773.58 240 773.18 241.66 773.18 243.9C773.18 246.14 773.58 247.82 774.38 248.94C775.22 250.02 776.28 250.56 777.56 250.56Z" fill="white"/>
<path d="M563.438 182.554C571.203 182.554 578.423 184.253 585.096 187.65C591.769 191.047 597.108 195.84 601.112 202.028C605.116 208.216 607.118 215.314 607.118 223.322C607.118 232.179 604.813 240.005 600.202 246.8C595.713 253.595 589.525 258.812 581.638 262.452C573.751 266.092 565.015 267.912 555.43 267.912C543.175 267.912 532.437 265.546 523.216 260.814C514.116 256.082 507.018 249.045 501.922 239.702C496.826 230.359 494.278 218.893 494.278 205.304C494.278 190.744 497.19 178.125 503.014 167.448C508.959 156.771 517.21 148.641 527.766 143.06C538.443 137.479 550.819 134.688 564.894 134.688C572.538 134.688 579.818 135.598 586.734 137.418C593.65 139.117 599.535 141.543 604.388 144.698L588.918 174.728C582.609 170.239 574.904 167.994 565.804 167.994C558.403 167.994 552.275 169.875 547.422 173.636C542.69 177.276 539.596 182.615 538.14 189.652C544.813 184.92 553.246 182.554 563.438 182.554ZM552.518 238.246C556.401 238.246 559.555 237.093 561.982 234.788C564.409 232.483 565.622 229.328 565.622 225.324C565.622 221.32 564.409 218.165 561.982 215.86C559.555 213.433 556.401 212.22 552.518 212.22C548.635 212.22 545.481 213.433 543.054 215.86C540.627 218.165 539.414 221.32 539.414 225.324C539.414 229.328 540.627 232.483 543.054 234.788C545.481 237.093 548.635 238.246 552.518 238.246ZM672.298 267.912C661.014 267.912 651.004 265.303 642.268 260.086C633.654 254.747 626.859 247.103 621.884 237.154C617.031 227.083 614.604 215.132 614.604 201.3C614.604 187.468 617.031 175.577 621.884 165.628C626.859 155.557 633.654 147.913 642.268 142.696C651.004 137.357 661.014 134.688 672.298 134.688C683.582 134.688 693.532 137.357 702.146 142.696C710.882 147.913 717.677 155.557 722.53 165.628C727.505 175.577 729.992 187.468 729.992 201.3C729.992 215.132 727.505 227.083 722.53 237.154C717.677 247.103 710.882 254.747 702.146 260.086C693.532 265.303 683.582 267.912 672.298 267.912ZM672.298 233.514C682.005 233.514 686.858 222.776 686.858 201.3C686.858 179.824 682.005 169.086 672.298 169.086C662.592 169.086 657.738 179.824 657.738 201.3C657.738 222.776 662.592 233.514 672.298 233.514Z" fill="#534FD2"/>
<path d="M542.43 254.912C530.297 254.912 519.619 252.607 510.398 247.996C501.298 243.264 494.139 236.287 488.922 227.066C483.826 217.723 481.278 206.136 481.278 192.304C481.278 177.38 484.251 164.701 490.196 154.266C496.141 143.71 504.392 135.641 514.948 130.06C525.625 124.479 537.941 121.688 551.894 121.688C559.417 121.688 566.636 122.598 573.552 124.418C580.589 126.117 586.535 128.543 591.388 131.698L575.918 161.728C572.157 159.059 568.335 157.299 564.452 156.45C560.691 155.479 556.808 154.994 552.804 154.994C544.189 154.994 537.273 157.603 532.056 162.82C526.96 167.916 524.412 175.378 524.412 185.206C524.412 187.026 524.412 188.846 524.412 190.666C524.412 192.365 524.412 194.124 524.412 195.944L514.584 188.846C517.011 184.721 519.862 181.263 523.138 178.472C526.414 175.56 530.297 173.376 534.786 171.92C539.275 170.343 544.493 169.554 550.438 169.554C558.203 169.554 565.362 171.253 571.914 174.65C578.587 177.926 583.926 182.597 587.93 188.664C592.055 194.731 594.118 201.95 594.118 210.322C594.118 219.422 591.813 227.309 587.202 233.982C582.591 240.655 576.343 245.812 568.456 249.452C560.691 253.092 552.015 254.912 542.43 254.912ZM539.518 225.246C542.066 225.246 544.311 224.761 546.252 223.79C548.315 222.698 549.892 221.181 550.984 219.24C552.076 217.299 552.622 214.993 552.622 212.324C552.622 208.32 551.409 205.165 548.982 202.86C546.555 200.433 543.401 199.22 539.518 199.22C536.97 199.22 534.725 199.766 532.784 200.858C530.843 201.95 529.265 203.467 528.052 205.408C526.96 207.349 526.414 209.655 526.414 212.324C526.414 214.993 526.96 217.299 528.052 219.24C529.265 221.181 530.843 222.698 532.784 223.79C534.725 224.761 536.97 225.246 539.518 225.246ZM659.298 254.912C648.014 254.912 638.004 252.303 629.268 247.086C620.654 241.869 613.859 234.285 608.884 224.336C604.031 214.387 601.604 202.375 601.604 188.3C601.604 174.225 604.031 162.213 608.884 152.264C613.859 142.315 620.654 134.731 629.268 129.514C638.004 124.297 648.014 121.688 659.298 121.688C670.582 121.688 680.532 124.297 689.146 129.514C697.882 134.731 704.677 142.315 709.53 152.264C714.505 162.213 716.992 174.225 716.992 188.3C716.992 202.375 714.505 214.387 709.53 224.336C704.677 234.285 697.882 241.869 689.146 247.086C680.532 252.303 670.582 254.912 659.298 254.912ZM659.298 220.514C662.089 220.514 664.576 219.543 666.76 217.602C668.944 215.661 670.643 212.324 671.856 207.592C673.191 202.86 673.858 196.429 673.858 188.3C673.858 180.049 673.191 173.619 671.856 169.008C670.643 164.276 668.944 160.939 666.76 158.998C664.576 157.057 662.089 156.086 659.298 156.086C656.508 156.086 654.02 157.057 651.836 158.998C649.652 160.939 647.893 164.276 646.558 169.008C645.345 173.619 644.738 180.049 644.738 188.3C644.738 196.429 645.345 202.86 646.558 207.592C647.893 212.324 649.652 215.661 651.836 217.602C654.02 219.543 656.508 220.514 659.298 220.514Z" fill="white"/>
<path d="M330.94 167.48C328.26 167.48 325.86 166.96 323.74 165.92C321.66 164.88 320.04 163.3 318.88 161.18C317.72 159.02 317.14 156.28 317.14 152.96V134.72H326.5V151.58C326.5 154.26 327.06 156.24 328.18 157.52C329.34 158.76 330.96 159.38 333.04 159.38C334.48 159.38 335.76 159.08 336.88 158.48C338 157.84 338.88 156.88 339.52 155.6C340.16 154.28 340.48 152.64 340.48 150.68V134.72H349.84V167H340.96V158.12L342.58 160.7C341.5 162.94 339.9 164.64 337.78 165.8C335.7 166.92 333.42 167.48 330.94 167.48ZM377.591 167.48C374.871 167.48 372.491 166.88 370.451 165.68C368.411 164.48 366.811 162.66 365.651 160.22C364.531 157.74 363.971 154.62 363.971 150.86C363.971 147.06 364.511 143.94 365.591 141.5C366.671 139.06 368.231 137.24 370.271 136.04C372.311 134.84 374.751 134.24 377.591 134.24C380.631 134.24 383.351 134.94 385.751 136.34C388.191 137.7 390.111 139.62 391.511 142.1C392.951 144.58 393.671 147.5 393.671 150.86C393.671 154.26 392.951 157.2 391.511 159.68C390.111 162.16 388.191 164.08 385.751 165.44C383.351 166.8 380.631 167.48 377.591 167.48ZM358.511 178.64V134.72H367.451V141.32L367.271 150.92L367.871 160.46V178.64H358.511ZM375.971 159.8C377.531 159.8 378.911 159.44 380.111 158.72C381.351 158 382.331 156.98 383.051 155.66C383.811 154.3 384.191 152.7 384.191 150.86C384.191 148.98 383.811 147.38 383.051 146.06C382.331 144.74 381.351 143.72 380.111 143C378.911 142.28 377.531 141.92 375.971 141.92C374.411 141.92 373.011 142.28 371.771 143C370.531 143.72 369.551 144.74 368.831 146.06C368.111 147.38 367.751 148.98 367.751 150.86C367.751 152.7 368.111 154.3 368.831 155.66C369.551 156.98 370.531 158 371.771 158.72C373.011 159.44 374.411 159.8 375.971 159.8ZM430.129 167.48C426.329 167.48 423.369 166.52 421.249 164.6C419.129 162.64 418.069 159.74 418.069 155.9V127.58H427.429V155.78C427.429 157.14 427.789 158.2 428.509 158.96C429.229 159.68 430.209 160.04 431.449 160.04C432.929 160.04 434.189 159.64 435.229 158.84L437.749 165.44C436.789 166.12 435.629 166.64 434.269 167C432.949 167.32 431.569 167.48 430.129 167.48ZM413.089 142.64V135.44H435.469V142.64H413.089ZM457.368 167.48C453.928 167.48 450.868 166.76 448.188 165.32C445.548 163.88 443.448 161.92 441.888 159.44C440.368 156.92 439.608 154.06 439.608 150.86C439.608 147.62 440.368 144.76 441.888 142.28C443.448 139.76 445.548 137.8 448.188 136.4C450.868 134.96 453.928 134.24 457.368 134.24C460.768 134.24 463.808 134.96 466.488 136.4C469.168 137.8 471.268 139.74 472.788 142.22C474.308 144.7 475.068 147.58 475.068 150.86C475.068 154.06 474.308 156.92 472.788 159.44C471.268 161.92 469.168 163.88 466.488 165.32C463.808 166.76 460.768 167.48 457.368 167.48ZM457.368 159.8C458.928 159.8 460.328 159.44 461.568 158.72C462.808 158 463.788 156.98 464.508 155.66C465.228 154.3 465.588 152.7 465.588 150.86C465.588 148.98 465.228 147.38 464.508 146.06C463.788 144.74 462.808 143.72 461.568 143C460.328 142.28 458.928 141.92 457.368 141.92C455.808 141.92 454.408 142.28 453.168 143C451.928 143.72 450.928 144.74 450.168 146.06C449.448 147.38 449.088 148.98 449.088 150.86C449.088 152.7 449.448 154.3 450.168 155.66C450.928 156.98 451.928 158 453.168 158.72C454.408 159.44 455.808 159.8 457.368 159.8Z" fill="#534FD2"/>
<path d="M325.94 162.48C323.26 162.48 320.86 161.96 318.74 160.92C316.66 159.88 315.04 158.3 313.88 156.18C312.72 154.02 312.14 151.28 312.14 147.96V129.72H321.5V146.58C321.5 149.26 322.06 151.24 323.18 152.52C324.34 153.76 325.96 154.38 328.04 154.38C329.48 154.38 330.76 154.08 331.88 153.48C333 152.84 333.88 151.88 334.52 150.6C335.16 149.28 335.48 147.64 335.48 145.68V129.72H344.84V162H335.96V153.12L337.58 155.7C336.5 157.94 334.9 159.64 332.78 160.8C330.7 161.92 328.42 162.48 325.94 162.48ZM372.591 162.48C369.871 162.48 367.491 161.88 365.451 160.68C363.411 159.48 361.811 157.66 360.651 155.22C359.531 152.74 358.971 149.62 358.971 145.86C358.971 142.06 359.511 138.94 360.591 136.5C361.671 134.06 363.231 132.24 365.271 131.04C367.311 129.84 369.751 129.24 372.591 129.24C375.631 129.24 378.351 129.94 380.751 131.34C383.191 132.7 385.111 134.62 386.511 137.1C387.951 139.58 388.671 142.5 388.671 145.86C388.671 149.26 387.951 152.2 386.511 154.68C385.111 157.16 383.191 159.08 380.751 160.44C378.351 161.8 375.631 162.48 372.591 162.48ZM353.511 173.64V129.72H362.451V136.32L362.271 145.92L362.871 155.46V173.64H353.511ZM370.971 154.8C372.531 154.8 373.911 154.44 375.111 153.72C376.351 153 377.331 151.98 378.051 150.66C378.811 149.3 379.191 147.7 379.191 145.86C379.191 143.98 378.811 142.38 378.051 141.06C377.331 139.74 376.351 138.72 375.111 138C373.911 137.28 372.531 136.92 370.971 136.92C369.411 136.92 368.011 137.28 366.771 138C365.531 138.72 364.551 139.74 363.831 141.06C363.111 142.38 362.751 143.98 362.751 145.86C362.751 147.7 363.111 149.3 363.831 150.66C364.551 151.98 365.531 153 366.771 153.72C368.011 154.44 369.411 154.8 370.971 154.8ZM425.129 162.48C421.329 162.48 418.369 161.52 416.249 159.6C414.129 157.64 413.069 154.74 413.069 150.9V122.58H422.429V150.78C422.429 152.14 422.789 153.2 423.509 153.96C424.229 154.68 425.209 155.04 426.449 155.04C427.929 155.04 429.189 154.64 430.229 153.84L432.749 160.44C431.789 161.12 430.629 161.64 429.269 162C427.949 162.32 426.569 162.48 425.129 162.48ZM408.089 137.64V130.44H430.469V137.64H408.089ZM452.368 162.48C448.928 162.48 445.868 161.76 443.188 160.32C440.548 158.88 438.448 156.92 436.888 154.44C435.368 151.92 434.608 149.06 434.608 145.86C434.608 142.62 435.368 139.76 436.888 137.28C438.448 134.76 440.548 132.8 443.188 131.4C445.868 129.96 448.928 129.24 452.368 129.24C455.768 129.24 458.808 129.96 461.488 131.4C464.168 132.8 466.268 134.74 467.788 137.22C469.308 139.7 470.068 142.58 470.068 145.86C470.068 149.06 469.308 151.92 467.788 154.44C466.268 156.92 464.168 158.88 461.488 160.32C458.808 161.76 455.768 162.48 452.368 162.48ZM452.368 154.8C453.928 154.8 455.328 154.44 456.568 153.72C457.808 153 458.788 151.98 459.508 150.66C460.228 149.3 460.588 147.7 460.588 145.86C460.588 143.98 460.228 142.38 459.508 141.06C458.788 139.74 457.808 138.72 456.568 138C455.328 137.28 453.928 136.92 452.368 136.92C450.808 136.92 449.408 137.28 448.168 138C446.928 138.72 445.928 139.74 445.168 141.06C444.448 142.38 444.088 143.98 444.088 145.86C444.088 147.7 444.448 149.3 445.168 150.66C445.928 151.98 446.928 153 448.168 153.72C449.408 154.44 450.808 154.8 452.368 154.8Z" fill="white"/>
<path d="M429.525 93V75.5H437.725C439.825 75.5 441.425 75.9167 442.525 76.75C443.625 77.5667 444.175 78.6667 444.175 80.05C444.175 80.9833 443.959 81.7833 443.525 82.45C443.092 83.1 442.509 83.6083 441.775 83.975C441.059 84.325 440.275 84.5 439.425 84.5L439.875 83.6C440.859 83.6 441.742 83.7833 442.525 84.15C443.309 84.5 443.925 85.0167 444.375 85.7C444.842 86.3833 445.075 87.2333 445.075 88.25C445.075 89.75 444.5 90.9167 443.35 91.75C442.2 92.5833 440.492 93 438.225 93H429.525ZM432.775 90.45H438.025C439.242 90.45 440.175 90.25 440.825 89.85C441.475 89.45 441.8 88.8083 441.8 87.925C441.8 87.0583 441.475 86.425 440.825 86.025C440.175 85.6083 439.242 85.4 438.025 85.4H432.525V82.875H437.375C438.509 82.875 439.375 82.675 439.975 82.275C440.592 81.875 440.9 81.275 440.9 80.475C440.9 79.6583 440.592 79.05 439.975 78.65C439.375 78.25 438.509 78.05 437.375 78.05H432.775V90.45ZM448.544 93V75.5H451.794V90.25H460.944V93H448.544ZM461.059 93L468.934 75.5H472.134L480.034 93H476.634L469.859 77.225H471.159L464.409 93H461.059ZM464.684 88.95L465.559 86.4H475.009L475.884 88.95H464.684ZM490.116 93.25C488.782 93.25 487.541 93.0333 486.391 92.6C485.257 92.15 484.266 91.525 483.416 90.725C482.582 89.9083 481.932 88.95 481.466 87.85C480.999 86.75 480.766 85.55 480.766 84.25C480.766 82.95 480.999 81.75 481.466 80.65C481.932 79.55 482.591 78.6 483.441 77.8C484.291 76.9833 485.282 76.3583 486.416 75.925C487.549 75.475 488.791 75.25 490.141 75.25C491.574 75.25 492.882 75.5 494.066 76C495.249 76.4833 496.249 77.2083 497.066 78.175L494.966 80.15C494.332 79.4667 493.624 78.9583 492.841 78.625C492.057 78.275 491.207 78.1 490.291 78.1C489.374 78.1 488.532 78.25 487.766 78.55C487.016 78.85 486.357 79.275 485.791 79.825C485.241 80.375 484.807 81.025 484.491 81.775C484.191 82.525 484.041 83.35 484.041 84.25C484.041 85.15 484.191 85.975 484.491 86.725C484.807 87.475 485.241 88.125 485.791 88.675C486.357 89.225 487.016 89.65 487.766 89.95C488.532 90.25 489.374 90.4 490.291 90.4C491.207 90.4 492.057 90.2333 492.841 89.9C493.624 89.55 494.332 89.025 494.966 88.325L497.066 90.325C496.249 91.275 495.249 92 494.066 92.5C492.882 93 491.566 93.25 490.116 93.25ZM503.08 88.875L502.905 85.025L512.08 75.5H515.73L508.105 83.6L506.305 85.575L503.08 88.875ZM500.18 93V75.5H503.43V93H500.18ZM512.38 93L505.68 85.025L507.83 82.65L516.18 93H512.38ZM528.277 83.55H537.002V86.3H528.277V83.55ZM528.552 93H525.302V75.5H538.077V78.225H528.552V93ZM541.22 93V75.5H548.42C549.97 75.5 551.295 75.75 552.395 76.25C553.511 76.75 554.37 77.4667 554.97 78.4C555.57 79.3333 555.87 80.4417 555.87 81.725C555.87 83.0083 555.57 84.1167 554.97 85.05C554.37 85.9667 553.511 86.675 552.395 87.175C551.295 87.6583 549.97 87.9 548.42 87.9H543.02L544.47 86.425V93H541.22ZM552.67 93L548.245 86.65H551.72L556.17 93H552.67ZM544.47 86.775L543.02 85.225H548.27C549.703 85.225 550.778 84.9167 551.495 84.3C552.228 83.6833 552.595 82.825 552.595 81.725C552.595 80.6083 552.228 79.75 551.495 79.15C550.778 78.55 549.703 78.25 548.27 78.25H543.02L544.47 76.65V86.775ZM559.506 93V75.5H562.756V93H559.506ZM567.489 93V75.5H575.139C577.039 75.5 578.706 75.8667 580.139 76.6C581.572 77.3333 582.689 78.35 583.489 79.65C584.289 80.95 584.689 82.4833 584.689 84.25C584.689 86 584.289 87.5333 583.489 88.85C582.689 90.15 581.572 91.1667 580.139 91.9C578.706 92.6333 577.039 93 575.139 93H567.489ZM570.739 90.25H574.989C576.306 90.25 577.439 90 578.389 89.5C579.356 89 580.097 88.3 580.614 87.4C581.147 86.5 581.414 85.45 581.414 84.25C581.414 83.0333 581.147 81.9833 580.614 81.1C580.097 80.2 579.356 79.5 578.389 79C577.439 78.5 576.306 78.25 574.989 78.25H570.739V90.25ZM585.424 93L593.299 75.5H596.499L604.399 93H600.999L594.224 77.225H595.524L588.774 93H585.424ZM589.049 88.95L589.924 86.4H599.374L600.249 88.95H589.049ZM609.875 93V86.075L610.6 88.075L603 75.5H606.475L612.575 85.625H610.625L616.775 75.5H619.975L612.375 88.075L613.125 86.075V93H609.875ZM634.438 93.25C633.071 93.25 631.763 93.0583 630.513 92.675C629.263 92.275 628.271 91.7667 627.538 91.15L628.663 88.625C629.363 89.175 630.229 89.6333 631.263 90C632.296 90.3667 633.354 90.55 634.438 90.55C635.354 90.55 636.096 90.45 636.663 90.25C637.229 90.05 637.646 89.7833 637.913 89.45C638.179 89.1 638.313 88.7083 638.313 88.275C638.313 87.7417 638.121 87.3167 637.738 87C637.354 86.6667 636.854 86.4083 636.238 86.225C635.638 86.025 634.963 85.8417 634.213 85.675C633.479 85.5083 632.738 85.3167 631.988 85.1C631.254 84.8667 630.579 84.575 629.963 84.225C629.363 83.8583 628.871 83.375 628.488 82.775C628.104 82.175 627.913 81.4083 627.913 80.475C627.913 79.525 628.163 78.6583 628.663 77.875C629.179 77.075 629.954 76.4417 630.988 75.975C632.038 75.4917 633.363 75.25 634.963 75.25C636.013 75.25 637.054 75.3833 638.088 75.65C639.121 75.9167 640.021 76.3 640.788 76.8L639.763 79.325C638.979 78.8583 638.171 78.5167 637.338 78.3C636.504 78.0667 635.704 77.95 634.938 77.95C634.038 77.95 633.304 78.0583 632.738 78.275C632.188 78.4917 631.779 78.775 631.513 79.125C631.263 79.475 631.138 79.875 631.138 80.325C631.138 80.8583 631.321 81.2917 631.688 81.625C632.071 81.9417 632.563 82.1917 633.163 82.375C633.779 82.5583 634.463 82.7417 635.213 82.925C635.963 83.0917 636.704 83.2833 637.438 83.5C638.188 83.7167 638.863 84 639.463 84.35C640.079 84.7 640.571 85.175 640.938 85.775C641.321 86.375 641.513 87.1333 641.513 88.05C641.513 88.9833 641.254 89.85 640.738 90.65C640.238 91.4333 639.463 92.0667 638.413 92.55C637.363 93.0167 636.038 93.25 634.438 93.25ZM642.26 93L650.135 75.5H653.335L661.235 93H657.835L651.06 77.225H652.36L645.61 93H642.26ZM645.885 88.95L646.76 86.4H656.21L657.085 88.95H645.885ZM663.461 93V75.5H666.711V90.25H675.861V93H663.461ZM681.427 82.775H690.127V85.45H681.427V82.775ZM681.677 90.275H691.552V93H678.427V75.5H691.202V78.225H681.677V90.275Z" fill="#1C2A39"/>
<defs>
<clipPath id="clip0_1_180">
<rect width="1016.1" height="452.459" fill="white" transform="translate(52 228)"/>
</clipPath>
</defs>
</svg>
